<svg xmlns="http://www.w3.org/2000/svg" viewBox="0 0 450 120" width="100%" height="100%">
  <defs>
    <style>
      .logotext {
        font-family: 'Linux Libertine', 'Georgia', 'Times New Roman', serif;
        fill: #000000;
        letter-spacing: 1px;
      }
      .large-cap {
        font-size: 44px;
      }
      .small-cap {
        font-size: 34px;
      }
      .subtitle {
        font-family: 'Linux Libertine', 'Georgia', 'Times New Roman', serif;
        font-size: 19px;
        fill: #222222;
      }
    </style>
  </defs>

  <g transform="translate(10, 10)">
    <circle cx="50" cy="50" r="45" fill="#f8f9fa" stroke="#a2a9b1" stroke-width="1.5"/>
    
    <path d="M 20 20 Q 50 -10 80 20" fill="none" stroke="#a2a9b1" stroke-width="1"/>
    <path d="M 15 50 Q 50 20 85 50" fill="none" stroke="#a2a9b1" stroke-width="1"/>
    <path d="M 20 80 Q 50 50 80 80" fill="none" stroke="#a2a9b1" stroke-width="1"/>
    <path d="M 50 5 Q 20 50 50 95" fill="none" stroke="#a2a9b1" stroke-width="1"/>
    <path d="M 50 5 Q 80 50 50 95" fill="none" stroke="#a2a9b1" stroke-width="1"/>
    
    <path d="M 5 35 L 20 35 L 20 50" fill="none" stroke="#a2a9b1" stroke-width="1.5"/>
    <path d="M 75 25 L 75 40 L 95 40" fill="none" stroke="#a2a9b1" stroke-width="1.5"/>
    <path d="M 30 75 L 45 75 L 45 95" fill="none" stroke="#a2a9b1" stroke-width="1.5"/>
    
    <path d="M 35 5 L 65 5 L 65 15 L 35 15 Z" fill="#ffffff" stroke="#a2a9b1" stroke-width="1.5"/>
  </g>

  <g transform="translate(125, 65)">
    <text class="logotext" x="0" y="0">
      <tspan class="large-cap">N</tspan><tspan class="small-cap">INAPEDI</tspan><tspan class="large-cap">A</tspan>
    </text>
    <text class="subtitle" x="2" y="28">Ensiklopedia Bebas</text>
  </g>
</svg>
